<?xml version="1.0" standalone="no"?>
<!DOCTYPE svg PUBLIC "-//W3C//DTD SVG 20010904//EN"
 "http://www.w3.org/TR/2001/REC-SVG-20010904/DTD/svg10.dtd">
<svg version="1.0" xmlns="http://www.w3.org/2000/svg"
 width="48.000000pt" height="48.000000pt" viewBox="0 0 48.000000 48.000000"
 preserveAspectRatio="xMidYMid meet">

<g transform="translate(0.000000,48.000000) scale(0.100000,-0.100000)"
fill="#000000" stroke="none">
<path d="M163 303 c-7 -2 -13 -11 -13 -19 0 -8 6 -11 15 -8 12 5 15 -4 15 -45
0 -39 4 -51 15 -51 12 0 15 14 15 65 0 67 -7 75 -47 58z"/>
<path d="M250 291 c-14 -27 -13 -84 2 -99 15 -15 51 -15 66 0 16 16 16 90 0
106 -18 18 -56 14 -68 -7z m52 -23 c5 -36 -3 -68 -18 -68 -10 0 -14 13 -14 45
0 32 4 45 14 45 8 0 16 -10 18 -22z"/>
</g>
</svg>
