<?xml version="1.0" standalone="no"?>
<!DOCTYPE svg PUBLIC "-//W3C//DTD SVG 20010904//EN"
 "http://www.w3.org/TR/2001/REC-SVG-20010904/DTD/svg10.dtd">
<svg version="1.0" xmlns="http://www.w3.org/2000/svg"
 width="48.000000pt" height="48.000000pt" viewBox="0 0 48.000000 48.000000"
 preserveAspectRatio="xMidYMid meet">

<g transform="translate(0.000000,48.000000) scale(0.100000,-0.100000)"
fill="#000000" stroke="none">
<path d="M201 439 l-25 -20 30 -24 c34 -29 44 -31 44 -9 0 35 84 -5 124 -60
32 -42 29 -132 -6 -178 -89 -117 -269 -70 -285 74 -4 31 0 57 12 81 26 55 -1
82 -29 29 -37 -73 -28 -157 26 -218 80 -91 203 -96 286 -13 80 80 78 204 -5
280 -35 33 -65 49 -93 49 -11 0 -23 7 -26 15 -8 20 -24 18 -53 -6z"/>
<path d="M163 303 c-7 -2 -13 -12 -13 -20 0 -9 6 -13 15 -9 12 4 15 -4 15 -44
0 -38 4 -50 15 -50 12 0 15 14 15 65 0 67 -7 75 -47 58z"/>
<path d="M252 298 c-16 -16 -16 -90 0 -106 15 -15 51 -15 66 0 16 16 16 90 0
106 -7 7 -21 12 -33 12 -12 0 -26 -5 -33 -12z m48 -54 c0 -59 -24 -55 -28 4
-2 33 0 42 12 42 12 0 16 -11 16 -46z"/>
</g>
</svg>
