<?xml version="1.0" encoding="iso-8859-1"?>
<!-- Generator: Adobe Illustrator 18.0.0, SVG Export Plug-In . SVG Version: 6.00 Build 0)  -->
<!DOCTYPE svg PUBLIC "-//W3C//DTD SVG 1.1//EN" "http://www.w3.org/Graphics/SVG/1.1/DTD/svg11.dtd">
<svg version="1.1" id="Capa_1" xmlns="http://www.w3.org/2000/svg" xmlns:xlink="http://www.w3.org/1999/xlink" x="0px" y="0px"
	 viewBox="0 0 380.125 380.125" style="enable-background:new 0 0 380.125 380.125;" xml:space="preserve">
<path id="XMLID_653_" d="M369.736,169.538L188.615,45.573c-8.171-5.586-18.775-6.201-27.532-1.57
	c-8.771,4.617-14.25,13.713-14.25,23.608v49.878l-105.051-71.9C33.611,40,23.007,39.386,14.251,44.002
	C5.477,48.636,0,57.731,0,67.627v244.879c0,9.942,5.511,19.053,14.327,23.654c8.803,4.617,19.422,3.955,27.594-1.709l104.912-72.73
	v50.769c0,9.941,5.51,19.053,14.313,23.67c8.817,4.6,19.451,3.938,27.607-1.725L369.86,208.872
	c6.447-4.477,10.294-11.85,10.265-19.698C380.11,181.309,376.215,173.969,369.736,169.538z"/>
<g>
</g>
<g>
</g>
<g>
</g>
<g>
</g>
<g>
</g>
<g>
</g>
<g>
</g>
<g>
</g>
<g>
</g>
<g>
</g>
<g>
</g>
<g>
</g>
<g>
</g>
<g>
</g>
<g>
</g>
</svg>
