<?xml version="1.0" standalone="no"?>
<!DOCTYPE svg PUBLIC "-//W3C//DTD SVG 20010904//EN"
 "http://www.w3.org/TR/2001/REC-SVG-20010904/DTD/svg10.dtd">
<svg version="1.0" xmlns="http://www.w3.org/2000/svg"
 width="884.000000pt" height="981.000000pt" viewBox="0 0 884.000000 981.000000"
 preserveAspectRatio="xMidYMid meet">

<g transform="translate(0.000000,981.000000) scale(0.100000,-0.100000)"
fill="#000000" stroke="none">
<path d="M734 9796 c-92 -18 -135 -32 -209 -69 -316 -156 -488 -479 -515 -962
-12 -209 -12 -7501 0 -7710 27 -485 198 -804 519 -965 141 -71 350 -96 536
-66 138 23 318 85 460 160 187 98 6658 3811 6765 3881 232 153 400 342 483
545 45 109 58 176 58 300 0 132 -25 240 -85 358 -98 192 -295 391 -523 528
-37 22 -1173 675 -2523 1449 -2517 1444 -2827 1622 -3655 2097 -264 152 -511
291 -550 311 -100 49 -254 105 -354 128 -113 26 -313 33 -407 15z"/>
</g>
</svg>
